<svg width="106" height="32" viewBox="0 0 106 32" fill="none" xmlns="http://www.w3.org/2000/svg">
<path fill-rule="evenodd" clip-rule="evenodd" d="M33.0531 22.1181C33.1012 22.236 33.1493 22.3539 33.1974 22.4686C33.5746 23.5356 33.6905 24.5442 33.4601 25.553C33.1405 27.6865 31.7187 29.5308 29.6868 30.3386C28.9614 30.656 28.149 30.8 27.3363 30.8C27.104 30.8 26.8135 30.7715 26.5813 30.7421C25.6236 30.6269 24.6373 30.3101 23.679 29.7624C22.5181 29.0991 21.3572 28.1481 20.0803 26.7643C18.8034 28.1481 17.6715 29.0991 16.4816 29.7624C15.5237 30.3101 14.537 30.6269 13.5791 30.7421C13.3465 30.7712 13.0566 30.8 12.8244 30.8C12.0119 30.8 11.2282 30.656 10.4735 30.3386C8.47066 29.5308 7.01981 27.7153 6.70059 25.553C6.55504 24.5148 6.67131 23.5057 7.04881 22.4392C7.19377 22.0646 7.33874 21.7187 7.48371 21.4013C7.58693 21.1709 7.69021 20.9461 7.79092 20.727C7.9168 20.453 8.03868 20.1877 8.15144 19.9311L8.18072 19.8738C10.1833 15.5496 12.3599 11.1677 14.5947 6.84377L14.682 6.6704C14.9195 6.22155 15.1516 5.76985 15.3781 5.31539C15.6681 4.79614 15.9876 4.24837 16.4231 3.72969C17.3804 2.63445 18.6863 2 20.1377 2C21.5596 2 22.8947 2.63445 23.8234 3.78758C24.2515 4.26619 24.5314 4.76852 24.8 5.25085L24.8683 5.37328C25.0943 5.82802 25.3263 6.27973 25.5645 6.72829L25.6515 6.90166C27.9156 11.2256 30.0629 15.6072 32.0657 19.9317L32.0947 19.9605C32.2081 20.2184 32.3308 20.4856 32.4576 20.7618C32.5574 20.9792 32.6597 21.2022 32.7622 21.4307C32.8591 21.6428 32.9561 21.8805 33.0531 22.1181ZM55.6018 9.23649C55.6018 10.2744 54.7599 11.1102 53.7149 11.1102C52.67 11.1102 51.8286 10.2744 51.8286 9.23649C51.8286 8.19856 52.6413 7.3628 53.7149 7.3628C54.7894 7.3916 55.6018 8.22765 55.6018 9.23649ZM47.823 13.0131V13.4744C47.823 13.4744 46.9236 12.3207 45.008 12.3207C41.8448 12.3207 39.3774 14.7137 39.3774 18.0288C39.3774 21.3154 41.8158 23.7368 45.008 23.7368C46.9526 23.7368 47.823 22.5549 47.823 22.5549V23.0448C47.823 23.2755 47.9975 23.448 48.2295 23.448H50.58V12.6082H48.2295C47.9975 12.609 47.823 12.8112 47.823 13.0131ZM45.4739 21.1427C46.5185 21.1427 47.3895 20.5949 47.8244 19.9605V16.0973C47.4185 15.492 46.4898 14.9154 45.4739 14.9154C43.6165 14.9154 42.1941 16.0685 42.1941 18.0289C42.1941 19.9896 43.6165 21.1427 45.4739 21.1427ZM52.3231 12.6091H55.1091V23.4489H52.3231V12.6091ZM91.1265 13.4743C91.1265 13.4743 92.0265 12.3206 93.9421 12.3206C97.0763 12.3206 99.5431 14.7432 99.5431 18.0298C99.5431 21.3163 97.0763 23.7372 93.9125 23.7372C91.9975 23.7372 91.0975 22.5553 91.0975 22.5553V23.0452C91.0975 23.2471 90.9239 23.4489 90.6916 23.4489H88.3405V7.39154H91.1265V13.4743ZM93.4776 21.1136C92.4034 21.1136 91.562 20.5664 91.1265 19.9317V16.0685C91.562 15.492 92.4907 14.8866 93.4776 14.8866C95.335 14.8866 96.7571 16.0397 96.7571 18.0001C96.7571 19.9605 95.3353 21.1136 93.4776 21.1136ZM86.8886 23.4776V17.0202C86.8886 15.2039 86.5108 14.1662 85.5245 13.359C84.7118 12.6672 83.6958 12.3207 82.4766 12.3207C81.403 12.3207 80.3294 12.6381 79.5167 13.4744V13.0131C79.5167 12.8112 79.3424 12.6093 79.1102 12.6093H76.9052V23.4491H79.6906V15.8959C80.243 15.2614 81.1139 14.8289 81.9553 14.8289C83.5216 14.8289 84.102 15.55 84.102 17.337V23.4776H86.8886ZM70.1429 12.3206C68.2279 12.3206 67.3279 13.4743 67.3279 13.4743V7.39154H64.5419V23.4489H66.8924C67.1247 23.4489 67.2989 23.2471 67.2989 23.0452V22.5553C67.2989 22.5553 68.1989 23.7372 70.1139 23.7372C73.2777 23.7372 75.7445 21.3163 75.7445 18.0298C75.7735 14.7429 73.3067 12.3206 70.1429 12.3206ZM67.3279 19.9317C67.7634 20.5664 68.6048 21.1136 69.6784 21.1136C71.5363 21.1136 72.9582 19.9605 72.9582 18.0001C72.9582 16.0397 71.5363 14.8866 69.6784 14.8866C68.6921 14.8866 67.7634 15.492 67.3279 16.0685V19.9317ZM62.1328 12.3206C62.9742 12.3206 63.4097 12.4651 63.4097 12.4651V15.0306C63.4097 15.0306 61.0879 14.2521 59.637 15.8957V23.4775H56.8504V12.6091H59.2015C59.4338 12.6091 59.6075 12.811 59.6075 13.0129V13.4743C60.1305 12.8686 61.2624 12.3206 62.1328 12.3206ZM20.1084 23.9676C18.541 22.0072 17.5251 20.1624 17.1772 18.606C17.0322 17.9428 17.0029 17.3662 17.0902 16.8473C17.1479 16.3859 17.3224 15.9821 17.5547 15.6362C18.1061 14.8584 19.0348 14.3679 20.1087 14.3679C21.183 14.3679 22.1406 14.8293 22.6631 15.6362C22.8953 15.9821 23.0693 16.3862 23.1278 16.8473C23.2145 17.3665 23.1855 17.9716 23.0406 18.606C22.6912 20.1336 21.6753 21.9787 20.1084 23.9676ZM29.0472 28.6959C30.4691 28.1193 31.485 26.8216 31.688 25.3226C31.8042 24.5733 31.7172 23.8521 31.4856 23.1034C31.4251 22.9027 31.3364 22.7023 31.2393 22.4828C31.1967 22.3866 31.1525 22.2867 31.1084 22.1815C30.9926 21.9511 30.884 21.7067 30.7755 21.4623C30.6664 21.2166 30.5572 20.9708 30.4406 20.7392V20.7104C28.4044 16.3468 26.2854 12.0218 24.0846 7.73771L23.9974 7.56434C23.8837 7.35245 23.77 7.13349 23.6561 6.91433C23.5378 6.68668 23.4194 6.45881 23.3009 6.23841C23.0687 5.77791 22.8078 5.34534 22.4882 4.96951C21.8788 4.27832 21.0664 3.90307 20.1664 3.90307C19.2665 3.90307 18.4541 4.27832 17.8446 4.96951C17.5251 5.34448 17.2642 5.77704 17.0319 6.23841C16.9193 6.4484 16.8067 6.66518 16.6939 6.88209C16.5744 7.112 16.4548 7.34206 16.3352 7.56434L16.2482 7.73771C14.0134 12.0041 11.8658 16.3859 9.86351 20.6816L9.83423 20.7389C9.6017 21.2288 9.37004 21.7193 9.1668 22.1806C9.12229 22.2868 9.07773 22.3875 9.03483 22.4845C8.93801 22.7034 8.84966 22.9031 8.78959 23.1031C8.49907 23.9103 8.44137 24.6309 8.52835 25.3514C8.73131 26.8504 9.74725 28.1481 11.1691 28.7247C11.8365 28.9839 12.5915 29.0994 13.3749 29.0127C14.1004 28.9266 14.8255 28.6959 15.5802 28.2633C16.6251 27.6868 17.6991 26.7928 18.889 25.4666C17.0026 23.1316 15.8127 20.9693 15.3775 19.0671C15.1453 18.202 15.1166 17.3662 15.2326 16.6163C15.3485 15.8957 15.6101 15.2325 16.0163 14.6559C16.9159 13.3876 18.4254 12.6091 20.1082 12.6091C21.7909 12.6091 23.3004 13.3582 24.2006 14.6559C24.6068 15.2325 24.8683 15.8957 24.984 16.6163C25.0716 17.3662 25.0423 18.1732 24.8391 19.0671C24.4036 20.9693 23.2427 23.1031 21.3273 25.4378C22.5465 26.7643 23.5912 27.6574 24.6361 28.2345C25.3902 28.6665 26.1162 28.8972 26.8417 28.9839C27.5958 29.0706 28.3508 28.9839 29.0472 28.6959Z" fill="#FF5A5F"/>
</svg>
