<svg width="106" height="32" viewBox="0 0 106 32" fill="none" xmlns="http://www.w3.org/2000/svg">
<path fill-rule="evenodd" clip-rule="evenodd" d="M14.9736 21.319H23.1956V24.7674H11.3066V7H14.9736V21.319ZM34.7506 20.5625C33.2281 21.7323 32.3582 22.0113 30.9698 22.0113C29.7203 22.0113 28.742 21.6086 28.0523 20.9023L37.3008 16.9191C37.0989 15.4348 36.5562 14.1087 35.7213 13.1005C34.5061 11.6354 32.7075 10.8602 30.5175 10.8602C26.5398 10.8602 23.5404 13.9067 23.5404 17.9305C23.5404 22.0587 26.547 25 30.9163 25C33.3644 25 35.8674 23.7955 37.0383 22.3882L34.7506 20.5625ZM46.5132 10.8609C44.9964 10.8609 43.2714 11.5908 42.2175 13.0522L42.2181 13.0494V11.0903H38.6005V24.7674H42.2175V16.985C42.2175 15.5844 43.2635 14.0954 45.2004 14.0954C46.6971 14.0954 48.2461 15.1764 48.2461 16.985V24.7674H51.8637V16.2891C51.8637 13.1433 49.6958 10.8609 46.5132 10.8609ZM77.5736 11.0911L74.3033 20.4075L71.0329 11.0911H66.9004L72.3209 24.7638H76.285L81.7054 11.0911H77.5736ZM30.5842 13.8481C29.399 13.8481 28.4176 14.3524 27.8016 15.2112C27.2396 15.9945 26.8953 17.0872 27.0679 18.4842L33.3881 15.762C32.8768 14.621 31.8878 13.8481 30.5842 13.8481ZM88.2035 14.0785C86.1833 14.0785 84.7162 15.668 84.7162 17.9291C84.7162 20.0879 86.2702 21.7796 88.252 21.7796C90.273 21.7796 91.7391 20.1464 91.7391 17.9291C91.7391 15.7702 90.1859 14.0785 88.2035 14.0785ZM81.1463 17.9291C81.1463 21.938 84.2463 24.9981 88.2026 24.9981C92.1859 24.9981 95.3066 21.8922 95.3066 17.9291C95.3066 13.9201 92.2075 10.8602 88.2512 10.8602C84.2677 10.8602 81.1463 13.9652 81.1463 17.9291ZM60.3489 14.0785C58.3286 14.0785 56.8624 15.668 56.8624 17.9291C56.8624 20.0879 58.4157 21.7796 60.3981 21.7796C62.4183 21.7796 63.8845 20.1464 63.8845 17.9291C63.8845 15.7702 62.3313 14.0785 60.3489 14.0785ZM53.2966 17.9292C53.2966 21.9381 56.3958 24.9981 60.3521 24.9981C64.3356 24.9981 67.4568 21.8923 67.4568 17.9292C67.4568 13.9201 64.3569 10.8603 60.4013 10.8603C56.4172 10.8603 53.2966 13.9652 53.2966 17.9292Z" fill="#E60012"/>
</svg>
