<svg width="106" height="32" viewBox="0 0 106 32" fill="none" xmlns="http://www.w3.org/2000/svg">
<path d="M23.1069 3C16.0376 3 10.3066 8.73085 10.3066 15.8001C10.3066 22.8696 16.0376 28.6 23.1069 28.6C30.1769 28.6 35.9073 22.8696 35.9073 15.8001C35.9073 8.73131 30.1771 3 23.1069 3ZM28.977 21.4614C28.9224 21.5509 28.8506 21.6287 28.7659 21.6905C28.6811 21.7522 28.585 21.7967 28.4831 21.8212C28.3811 21.8458 28.2754 21.85 28.1718 21.8336C28.0682 21.8173 27.9689 21.7806 27.8795 21.7258C24.8741 19.8901 21.0908 19.4743 16.6351 20.4923C16.4288 20.5392 16.2123 20.5023 16.0332 20.3897C15.8541 20.277 15.7271 20.0979 15.68 19.8916C15.6565 19.7895 15.6535 19.6837 15.6709 19.5804C15.6884 19.4771 15.7261 19.3782 15.7818 19.2895C15.8376 19.2007 15.9103 19.1238 15.9958 19.0632C16.0813 19.0026 16.1779 18.9595 16.2801 18.9363C21.156 17.8223 25.3385 18.3019 28.7125 20.3639C29.0886 20.5947 29.2078 21.0854 28.977 21.4614ZM30.5437 17.9761C30.2548 18.4456 29.6403 18.5939 29.1711 18.305C25.7304 16.1902 20.4856 15.5777 16.416 16.813C15.8882 16.9724 15.3307 16.675 15.1705 16.1481C15.0941 15.8948 15.1212 15.6215 15.246 15.3882C15.3707 15.1549 15.5829 14.9806 15.836 14.9035C20.4847 13.4929 26.2639 14.1762 30.2151 16.6042C30.6843 16.8931 30.8326 17.5075 30.5437 17.9761ZM30.6782 14.3468C26.5527 11.8964 19.7463 11.6711 15.8075 12.8666C15.175 13.0584 14.5061 12.7013 14.3144 12.0688C14.2222 11.7649 14.2545 11.4369 14.4042 11.1568C14.5538 10.8768 14.8086 10.6676 15.1124 10.5753C19.6339 9.20271 27.1504 9.4679 31.9001 12.2876C32.0355 12.3676 32.1537 12.4736 32.2481 12.5995C32.3424 12.7253 32.411 12.8685 32.4499 13.0209C32.4888 13.1733 32.4972 13.3319 32.4748 13.4876C32.4523 13.6432 32.3993 13.7929 32.3189 13.9281C31.9826 14.497 31.2453 14.6846 30.6782 14.3468ZM45.1318 14.8163C42.9216 14.2893 42.5288 13.9194 42.5288 13.1421C42.5288 12.4078 43.2197 11.9137 44.2483 11.9137C45.2449 11.9137 46.2324 12.2889 47.2687 13.0614C47.2993 13.0848 47.339 13.0941 47.3772 13.088C47.3964 13.0853 47.4149 13.0786 47.4315 13.0685C47.448 13.0583 47.4623 13.0449 47.4735 13.029L48.5526 11.5079C48.574 11.4777 48.583 11.4405 48.5779 11.404C48.5727 11.3674 48.5539 11.3342 48.5251 11.311C47.2916 10.3216 45.9037 9.84056 44.2804 9.84056C41.8944 9.84056 40.2268 11.2726 40.2268 13.3216C40.2268 15.5188 41.6652 16.2968 44.1505 16.8974C46.2645 17.3845 46.6221 17.7926 46.6221 18.5221C46.6221 19.3306 45.9007 19.8335 44.739 19.8335C43.4489 19.8335 42.3958 19.3979 41.2188 18.3799C41.1895 18.3551 41.1517 18.3425 41.1134 18.3447C41.0736 18.3478 41.0385 18.3661 41.014 18.3952L39.8034 19.835C39.753 19.8962 39.7591 19.9848 39.8172 20.0368C41.1867 21.2596 42.8712 21.9047 44.6901 21.9047C47.2611 21.9047 48.9225 20.4999 48.9225 18.3249C48.9271 16.4896 47.8281 15.4731 45.1364 14.8183L45.1318 14.8163ZM54.7401 12.6367C53.6258 12.6367 52.7117 13.0757 51.9566 13.9752V12.9627C51.9568 12.9244 51.9418 12.8876 51.9148 12.8604C51.8879 12.8332 51.8512 12.8178 51.813 12.8176H49.8335C49.7541 12.8176 49.6899 12.8828 49.6899 12.9627V24.2127C49.6899 24.2922 49.7541 24.3579 49.8335 24.3579H51.813C51.8924 24.3579 51.9566 24.2922 51.9566 24.2127V20.662C52.7117 21.5072 53.6258 21.9215 54.7401 21.9215C56.8112 21.9215 58.9083 20.3272 58.9083 17.2795C58.9114 14.2312 56.8143 12.6365 54.7416 12.6365L54.7401 12.6367ZM56.6064 17.2795C56.6064 18.8308 55.6511 19.9145 54.2815 19.9145C52.9288 19.9145 51.9077 18.7819 51.9077 17.2795C51.9077 15.777 52.9288 14.6447 54.2815 14.6447C55.6281 14.6445 56.6064 15.7525 56.6064 17.2795ZM64.281 12.6367C61.6138 12.6367 59.5243 14.6904 59.5243 17.3127C59.5243 19.9069 61.6 21.9383 64.249 21.9383C66.9254 21.9383 69.021 19.8916 69.021 17.2795C69.021 14.6763 66.9391 12.6367 64.281 12.6367ZM64.281 19.9298C62.8626 19.9298 61.7926 18.7895 61.7926 17.2788C61.7926 15.7611 62.8259 14.6598 64.249 14.6598C65.6766 14.6598 66.7527 15.7996 66.7527 17.3119C66.7527 18.8293 65.7133 19.9298 64.281 19.9298ZM74.7162 12.8176H72.5381V10.5912C72.5382 10.5723 72.5345 10.5535 72.5273 10.5359C72.5202 10.5184 72.5096 10.5025 72.4963 10.489C72.4829 10.4755 72.467 10.4648 72.4496 10.4575C72.4321 10.4502 72.4133 10.4464 72.3944 10.4463H70.415C70.3355 10.4463 70.2698 10.5114 70.2698 10.5912V12.8176H69.319C69.2395 12.8176 69.1754 12.8828 69.1754 12.9627V14.6635C69.1754 14.7433 69.2395 14.8085 69.319 14.8085H70.2698V19.2099C70.2698 20.9875 71.1548 21.8894 72.9019 21.8894C73.6111 21.8894 74.1996 21.7426 74.7544 21.4278C74.8003 21.4033 74.8278 21.3544 74.8278 21.3024V19.6822C74.8278 19.6333 74.8018 19.5859 74.759 19.5599C74.7382 19.5466 74.7142 19.539 74.6895 19.5379C74.6648 19.5369 74.6403 19.5423 74.6184 19.5538C74.2378 19.7449 73.8694 19.8335 73.4567 19.8335C72.8224 19.8335 72.5381 19.5446 72.5381 18.8996V14.8093H74.7162C74.7957 14.8093 74.8599 14.7442 74.8599 14.6642V12.9636C74.8605 12.9446 74.8573 12.9257 74.8504 12.908C74.8436 12.8903 74.8332 12.8742 74.8199 12.8607C74.8066 12.8471 74.7907 12.8364 74.7731 12.8291C74.7556 12.8219 74.7367 12.8183 74.7177 12.8186L74.7162 12.8176ZM82.3037 12.8264V12.5529C82.3037 11.7484 82.6125 11.3897 83.3034 11.3897C83.7161 11.3897 84.0478 11.4716 84.4192 11.5954C84.4651 11.6098 84.5125 11.6026 84.5491 11.5753C84.5678 11.5618 84.5829 11.5441 84.5933 11.5237C84.6036 11.5032 84.6089 11.4805 84.6087 11.4576V9.78996C84.6091 9.75882 84.5993 9.7284 84.5808 9.70333C84.5623 9.67826 84.5362 9.65989 84.5063 9.65102C84.115 9.53439 83.6137 9.41471 82.8617 9.41471C81.0351 9.41471 80.0675 10.444 80.0675 12.3903V12.8091H79.1168C79.0373 12.8091 78.9716 12.8742 78.9716 12.954V14.6635C78.9716 14.7433 79.0373 14.8085 79.1168 14.8085H80.0675V21.5959C80.0675 21.6769 80.1333 21.7411 80.2127 21.7411H82.1906C82.2717 21.7411 82.3358 21.6769 82.3358 21.5959V14.809H84.1838L87.0146 21.5959C86.6936 22.3082 86.3772 22.4503 85.9462 22.4503C85.5977 22.4503 85.2293 22.3464 84.8548 22.14C84.8194 22.1221 84.7784 22.1183 84.7402 22.1293C84.702 22.1431 84.6699 22.1706 84.6546 22.2073L83.9836 23.6793C83.9515 23.7496 83.979 23.8306 84.0463 23.8673C84.7463 24.2463 85.3776 24.4084 86.1587 24.4084C87.6199 24.4084 88.4285 23.7266 89.1393 21.8955L92.5723 13.0244C92.5812 13.0025 92.5845 12.9787 92.5819 12.9552C92.5792 12.9316 92.5706 12.9092 92.557 12.8898C92.5441 12.8704 92.5266 12.8545 92.5061 12.8435C92.4855 12.8325 92.4626 12.8268 92.4393 12.8268H90.3789C90.3162 12.8268 90.2612 12.8661 90.2413 12.924L88.1304 18.9516L85.8193 12.9201C85.809 12.8927 85.7906 12.8692 85.7666 12.8525C85.7426 12.8359 85.7141 12.8269 85.6848 12.8268L82.3037 12.8264ZM77.9047 12.8176H75.9253C75.8458 12.8176 75.7801 12.8828 75.7801 12.9627V21.5959C75.7801 21.6769 75.8458 21.7411 75.9253 21.7411H77.9047C77.9842 21.7411 78.0499 21.6769 78.0499 21.5959V12.9633C78.0499 12.9442 78.0462 12.9253 78.0389 12.9077C78.0316 12.8901 78.0209 12.8741 78.0074 12.8606C77.9939 12.8471 77.9779 12.8364 77.9603 12.8292C77.9427 12.8219 77.9238 12.8175 77.9047 12.8176ZM76.9264 8.88646C76.1423 8.88646 75.5065 9.5211 75.5065 10.3051C75.5065 11.0895 76.1423 11.7249 76.9264 11.7249C77.7106 11.7249 78.3449 11.0895 78.3449 10.3051C78.3449 9.52125 77.709 8.88646 76.9264 8.88646ZM94.2628 15.5936C93.4802 15.5936 92.8704 14.9646 92.8704 14.2008C92.8704 13.437 93.4879 12.8008 94.2705 12.8008C95.0531 12.8008 95.663 13.4297 95.663 14.1928C95.663 14.9566 95.0454 15.5936 94.2628 15.5936ZM94.2705 12.9393C93.5567 12.9393 93.0171 13.5064 93.0171 14.2008C93.0171 14.8949 93.5536 15.4543 94.2628 15.4543C94.9767 15.4543 95.5162 14.8877 95.5162 14.1928C95.5162 13.4987 94.9797 12.9393 94.2705 12.9393ZM94.5792 14.3361L94.9736 14.8876H94.6404L94.2858 14.3816H93.9816V14.8876H93.7034V13.4257H94.3546C94.6954 13.4257 94.9186 13.5995 94.9186 13.892C94.9201 14.1317 94.781 14.2781 94.5808 14.3361H94.5792ZM94.3438 13.6765H93.9816V14.1389H94.3438C94.5242 14.1389 94.6327 14.0504 94.6327 13.9075C94.6327 13.7571 94.5242 13.6765 94.3438 13.6765Z" fill="#1ED760"/>
</svg>
