<svg width="106" height="32" viewBox="0 0 106 32" fill="none" xmlns="http://www.w3.org/2000/svg">
<path fill-rule="evenodd" clip-rule="evenodd" d="M32.4165 8.93806C32.6879 9.0917 33.1084 9.2088 33.5228 9.24586C33.758 9.26671 34.249 9.25333 34.4868 9.21935C35.2997 9.10303 35.9725 8.76408 36.6024 8.1531C37.1958 7.57738 37.5341 7.00424 37.637 6.39995C37.6812 6.13924 37.6659 5.77096 37.6016 5.55709C37.4705 5.12086 37.1314 4.63907 36.7579 4.35906C36.363 4.06284 35.8965 3.95655 35.2511 4.01574C34.2012 4.112 33.2379 4.59584 32.4246 5.43484C31.9885 5.88445 31.7326 6.3266 31.6365 6.79629C31.5892 7.02637 31.5845 7.48756 31.6269 7.73C31.681 8.04192 31.7877 8.31241 31.9332 8.51032C32.0348 8.6475 32.2666 8.85313 32.4165 8.93806ZM80.8497 26.4145C81.8693 27.3716 83.1627 27.8853 84.8256 27.9945C85.0755 28.0107 86.119 27.9888 86.3852 27.961C88.4495 27.7507 90.1608 26.9799 91.6589 25.585C92.6289 24.6822 93.4991 23.4865 94.029 22.3284C94.6214 21.0346 94.9276 19.6739 94.9698 18.1493C95.0158 16.478 94.6229 15.0141 93.8294 13.8997C93.5004 13.4373 93.0561 12.966 92.6987 12.6992C92.1052 12.257 91.3963 11.9464 90.626 11.7912C90.0804 11.6813 89.6154 11.645 88.9305 11.6592C87.3208 11.6918 85.9189 12.0264 84.5904 12.6945C83.4245 13.2813 82.477 14.0253 81.4788 15.1395C81.012 15.6604 80.7184 16.0359 80.3901 16.5323C79.5767 17.761 79.1019 19.055 78.9601 20.4314C78.9058 20.9535 78.9071 21.6981 78.9626 22.2211L78.9732 22.3214L78.5669 22.4949C76.5713 23.3468 74.8732 23.8092 73.1405 23.9727C72.7267 24.0113 71.8479 24.0267 71.6065 23.9999C70.9764 23.9284 70.4713 23.704 70.063 23.3128C69.9358 23.191 69.7311 22.9561 69.7528 22.9561C69.788 22.9561 70.3359 22.8475 70.6319 22.7821C72.7936 22.3044 74.6951 21.3746 76.2374 20.0422C77.5509 18.9075 78.3604 17.8348 78.7171 16.7565C78.8771 16.2729 78.9246 15.9466 78.9097 15.437C78.8957 14.9521 78.8132 14.5048 78.6641 14.1023C78.2071 12.868 77.1811 12.1615 75.5403 11.9513C74.6758 11.8406 73.5042 11.889 72.5086 12.0768C70.0718 12.537 67.904 13.8774 66.0863 16.0469C65.4644 16.7894 64.9966 17.499 64.6048 18.2932C64.0302 19.4577 63.7575 20.5469 63.7265 21.8062C63.7167 22.1958 63.7389 22.8282 63.7673 22.9473C63.7738 22.9769 63.7436 23.0037 63.6084 23.0902C63.3752 23.2394 63.1413 23.3588 62.9715 23.4155C62.833 23.4618 62.8159 23.4633 62.5564 23.4541C62.2494 23.443 62.0956 23.4093 61.9188 23.3161C61.6787 23.1882 61.5813 22.9862 61.5358 22.5209C61.4781 21.9336 61.55 21.4801 62.04 19.3265C62.4303 17.6125 62.573 16.7475 62.6195 15.8199C62.6841 14.5267 62.4138 13.6146 61.7632 12.9323C61.3409 12.4886 60.7358 12.2297 59.9491 12.1551C59.6766 12.1294 59.1328 12.1427 58.8123 12.1831C57.481 12.3509 56.2595 12.9501 55.1037 14.0022C54.8162 14.2637 54.3389 14.7529 54.0933 15.0378C53.9656 15.1858 53.7819 15.367 53.579 15.5446L53.2629 15.8212L53.2512 15.4491C53.2264 14.6744 53.1112 14.1249 52.8664 13.6167C52.7425 13.3546 52.5745 13.1155 52.3696 12.9099C51.8253 12.3646 51.0292 12.1106 49.9695 12.1438C48.8318 12.1795 47.6886 12.5051 46.6581 13.0867C46.4513 13.2036 45.9838 13.5129 45.7804 13.6679C45.0541 14.2207 44.4022 14.8968 43.9378 15.5783C43.8708 15.6766 43.8158 15.7471 43.8158 15.7353C43.8158 15.7234 43.83 15.6349 43.8468 15.5386C43.8941 15.2689 43.8892 14.6175 43.8375 14.2842C43.7424 13.6717 43.5377 13.1428 43.2027 12.6436C42.8778 12.1595 42.4852 11.8764 41.9846 11.7654C41.9086 11.7485 41.7652 11.7369 41.6238 11.7361C41.4253 11.7348 41.37 11.741 41.2645 11.7757C41.0239 11.855 40.7403 12.0205 40.3746 12.2941C39.8923 12.6554 39.5457 12.9617 38.3845 14.0524C37.4346 14.9446 36.6429 15.6794 36.4866 15.8145C36.4305 15.8632 36.3837 15.9079 36.3827 15.9141C36.3816 15.9229 37.2581 16.9284 37.3648 17.0411C37.3839 17.0617 37.4318 17.0347 37.6471 16.8821C38.1681 16.5127 38.5437 16.284 38.7228 16.2258C38.9802 16.1424 39.1849 16.3097 39.2102 16.6244C39.2214 16.7621 39.1875 17.3355 39.1412 17.7985C39.0841 18.3704 38.9874 19.0372 38.7993 20.1616C38.7016 20.7448 38.5959 21.4201 38.5649 21.6621C38.5336 21.904 38.5046 22.1199 38.5002 22.142C38.4855 22.2174 37.614 22.884 37.2115 23.1277C36.9893 23.2626 36.7073 23.3957 36.5716 23.4309C36.3369 23.4919 35.9911 23.4525 35.7497 23.3383C35.6478 23.2899 35.5806 23.2399 35.4783 23.1375C35.2059 22.8647 35.0792 22.4951 35.0534 21.8981C35.043 21.6603 35.0459 21.6348 35.1529 20.9705C35.4757 18.9747 35.7698 17.3206 36.0575 15.8871C36.2126 15.1148 36.24 14.9526 36.2542 14.7133C36.3046 13.8781 36.1348 13.1495 35.76 12.5885C35.3485 11.9731 34.7525 11.6993 33.8926 11.7307C33.6626 11.7394 33.5817 11.7497 33.4488 11.7883C32.7616 11.9888 31.9428 12.5712 30.5354 13.8606C30.1935 14.1738 29.8756 14.4644 29.8291 14.5066L29.7443 14.5828L29.7324 14.4345C29.6091 12.896 29.0433 12.0022 27.9723 11.6537C27.1845 11.3974 25.9475 11.4548 25.0366 11.7899C24.621 11.943 24.1478 12.2125 23.7927 12.4987C23.5799 12.6701 23.2202 13.0386 23.0382 13.2715C22.5363 13.9142 22.153 14.6543 21.8263 15.6125C21.772 15.7721 21.7296 15.9118 21.7325 15.9226C21.7356 15.9352 21.8056 15.9172 21.9198 15.8742C22.3267 15.7214 22.6839 15.6544 23.0909 15.6544C23.4386 15.6544 23.5854 15.682 23.8038 15.789C24.0739 15.9213 24.2468 16.1409 24.3393 16.4695C24.3662 16.5665 24.3719 16.6515 24.3714 16.9727C24.3706 17.3047 24.3646 17.3852 24.3295 17.5466C24.1889 18.1931 23.7927 19.0375 23.1388 20.0865C22.3453 21.3586 21.7668 21.9876 21.3621 22.0185C21.2724 22.0249 21.2419 22.0185 21.1424 21.9696C20.7725 21.7882 20.4251 21.0665 20.1127 19.8296C19.8501 18.7899 19.6816 17.8896 19.2835 15.3927C19.1308 14.4356 19.0855 14.2006 18.9855 13.8485C18.5668 12.3749 17.794 11.68 16.6304 11.7312C16.168 11.7513 15.7736 11.9065 15.1507 12.3139C14.5679 12.6948 14.0628 13.104 13.1918 13.901C12.5557 14.4813 11.9167 15.0584 11.2748 15.6323C10.991 15.885 10.9569 15.9213 10.9788 15.9468C11.1277 16.137 11.2755 16.328 11.4224 16.5197C11.6906 16.8679 11.8488 17.0589 11.8628 17.0512C11.8744 17.0442 11.9752 16.9755 12.0864 16.898C12.4844 16.6208 12.9488 16.3233 13.1099 16.2425C13.2639 16.1661 13.2799 16.1612 13.3792 16.1712C13.624 16.1957 13.9129 16.4214 14.1435 16.7683C14.4435 17.2192 14.7873 18.0513 15.0489 18.9585C15.3311 19.9879 15.6108 21.018 15.8878 22.0489C16.4073 23.9739 16.6808 24.9548 16.7356 25.095C17.3846 26.7519 18.1331 27.6599 19.0346 27.8838C19.2388 27.9348 19.643 27.9376 19.9147 27.8897C21.3693 27.6349 23.0186 26.3903 24.9405 24.0977C25.9221 22.926 27.0656 21.3643 27.8141 20.1709C28.4936 19.0877 29.0824 17.9131 29.3507 17.1057L29.399 16.96L29.7278 16.7258C30.1136 16.4512 30.2713 16.3496 30.4703 16.2479C30.6047 16.1792 30.6264 16.1735 30.7513 16.1751C31.1963 16.1813 31.4551 16.5514 31.4602 17.1886C31.4618 17.3834 31.4558 17.4182 31.3605 17.7906C31.2392 18.2636 31.0407 18.9914 30.7513 20.0278C30.3483 21.4693 30.1746 22.1696 30.0046 23.0374C29.7456 24.3595 29.7128 25.2126 29.8937 25.9114C29.9875 26.2743 30.0909 26.5121 30.277 26.7931C30.7443 27.4988 31.4623 27.8442 32.4636 27.8442C33.1428 27.8442 33.9107 27.7124 34.6127 27.4754C35.8828 27.0466 37.0792 26.2951 38.3982 25.0978C38.4902 25.0142 38.5682 24.9493 38.5718 24.9532C38.5928 25.0116 38.6112 25.0708 38.6272 25.1308C38.7771 25.6548 39.0353 26.1461 39.3346 26.4768C39.775 26.9635 40.4147 27.3202 41.2084 27.5209C41.7442 27.6565 42.2234 27.7142 42.9574 27.7304C43.448 27.7415 43.4609 27.7412 43.448 27.7078C43.3552 27.4671 43.2596 27.0098 43.2133 26.5864C43.127 25.7968 43.1262 24.5978 43.2118 23.756C43.3697 22.2007 43.8243 20.6764 44.5571 19.2462C45.2156 17.9602 45.8424 17.1978 46.4294 16.9675C46.5462 16.9217 46.6 16.9119 46.7669 16.9055C46.9047 16.9001 47.006 16.9063 47.0978 16.9256C47.5503 17.0213 47.8054 17.3111 47.9153 17.8541C47.9491 18.0204 47.9437 18.6427 47.906 18.9762C47.8385 19.5692 47.7364 20.0893 47.525 20.9167C47.2963 21.8116 47.1911 22.4228 47.1381 23.1633C47.0611 24.238 47.1249 24.9612 47.3562 25.6308C47.7398 26.7421 48.6196 27.3626 50.1735 27.6185C50.6028 27.6892 50.9959 27.7199 51.6193 27.7312C52.1794 27.7417 52.1949 27.7412 52.1841 27.7078C52.1781 27.689 52.1365 27.5683 52.0918 27.4401C51.9962 27.1652 51.9145 26.7774 51.8708 26.3888C51.8323 26.0452 51.8271 24.9854 51.8623 24.6096C52.0308 22.8125 52.6519 21.0637 53.7839 19.2009C54.6046 17.8505 55.3332 17.0898 55.9615 16.9274C56.1132 16.8882 56.419 16.898 56.5389 16.9464C56.877 17.0818 57.0667 17.3757 57.1437 17.8845C57.1783 18.1143 57.1783 18.6085 57.1429 18.9456C57.0837 19.5141 56.9217 20.3958 56.7364 21.1556C56.3892 22.5839 56.3047 23.0019 56.2065 23.7832C56.0421 25.0896 56.1248 25.9991 56.4686 26.6683C56.7676 27.2509 57.2934 27.6257 58.0176 27.7718C58.5379 27.8774 59.282 27.8632 59.9767 27.7345C61.4176 27.4684 62.8725 26.7169 64.2744 25.5148L64.5303 25.2955L64.6151 25.4422C64.7427 25.6549 64.883 25.8599 65.0351 26.056C65.1866 26.2485 65.658 26.7061 65.8565 26.8538C66.6497 27.444 67.6303 27.7873 68.8373 27.8985C69.3799 27.9484 70.2659 27.9368 71.0206 27.8699C73.3798 27.6619 75.7163 26.9434 77.9864 25.7276C78.3325 25.5426 79.1474 25.0765 79.4175 24.9092C79.54 24.8333 79.646 24.7715 79.6527 24.7715C79.66 24.7715 79.7008 24.8418 79.7434 24.9282C79.9967 25.4373 80.4348 26.0254 80.8497 26.4145ZM88.9721 22.1508C88.1523 23.5107 87.1926 24.2612 86.1058 24.3924C85.738 24.4364 85.41 24.4063 85.188 24.3075C84.8923 24.1762 84.6193 23.8787 84.4089 23.46C84.1081 22.8606 83.9902 22.2234 84.0386 21.4564C84.129 20.0229 84.534 18.749 85.303 17.4809C85.8967 16.5024 86.5307 15.8714 87.297 15.498C87.7002 15.3011 88.1158 15.1917 88.5883 15.1582C89.0049 15.1284 89.2037 15.1801 89.4223 15.3744C89.6283 15.5579 89.7819 15.8294 89.9323 16.2785C90.0977 16.7714 90.1716 17.2141 90.1877 17.8086C90.227 19.2735 89.8116 20.7585 88.9721 22.1508ZM69.3327 21.2381C71.0049 20.5726 72.5164 19.3944 73.4094 18.0604C73.6875 17.6448 73.8633 17.2508 73.9186 16.9185C73.9452 16.761 73.932 16.463 73.8914 16.2942C73.8594 16.1596 73.7769 15.9912 73.7015 15.9058C73.6263 15.8209 73.4893 15.7362 73.3544 15.6922C73.2194 15.6477 72.8395 15.6387 72.664 15.6757C71.9178 15.833 71.183 16.4015 70.4438 17.3949C69.6408 18.4735 69.2019 19.4911 69.1006 20.51C69.0742 20.7725 69.0758 21.321 69.1029 21.321C69.1143 21.3212 69.2177 21.2837 69.3327 21.2381Z" fill="#1AB7EA"/>
</svg>
