<svg width="106" height="32" viewBox="0 0 106 32" fill="none" xmlns="http://www.w3.org/2000/svg">
<path d="M23.2994 3H23.9969C26.4183 3.05264 28.8002 4.02645 30.5109 5.75036C29.8793 6.39518 29.2344 7.01368 28.6159 7.6585C27.6553 6.78997 26.4972 6.11883 25.2339 5.88195C23.3652 5.48717 21.3518 5.84247 19.7858 6.9084C18.0751 8.02697 16.917 9.92195 16.667 11.9485C16.3906 13.9488 16.9565 16.0543 18.2593 17.6072C19.5095 19.1205 21.4176 20.068 23.3916 20.1338C25.2339 20.2391 27.1552 19.6732 28.4975 18.3836C29.5503 17.4756 30.0372 16.0938 30.1951 14.7515C28.0106 14.7515 25.8261 14.7647 23.6416 14.7515V12.0406H32.8402C33.3139 14.9489 32.6296 18.2257 30.4188 20.3049C28.9449 21.7788 26.9052 22.6473 24.826 22.8184C22.8125 23.0158 20.7333 22.6341 18.9436 21.6603C16.7986 20.5154 15.0878 18.581 14.2456 16.3044C13.456 14.212 13.4429 11.8433 14.1798 9.73772C14.851 7.81642 16.1406 6.11883 17.7987 4.93446C19.391 3.76326 21.3255 3.11844 23.2994 3Z" fill="#3780FF"/>
<path d="M76.0693 3.68457H78.8854V22.4765C77.9511 22.4765 77.0037 22.4897 76.0693 22.4634C76.0825 16.2125 76.0693 9.94855 76.0693 3.68457Z" fill="#38B137"/>
<path d="M39.1041 10.1987C40.8412 9.8698 42.723 10.2382 44.1574 11.2778C45.4602 12.199 46.3683 13.6466 46.6446 15.2257C46.9999 17.0549 46.5525 19.0551 45.3681 20.5027C44.0916 22.1213 41.9993 22.9899 39.9595 22.8583C38.0908 22.753 36.2748 21.8187 35.1694 20.2921C33.9192 18.6077 33.6166 16.2916 34.3009 14.3177C34.9852 12.199 36.9196 10.5804 39.1041 10.1987ZM39.4989 12.6991C38.7883 12.8833 38.1303 13.2912 37.6566 13.8703C36.3801 15.3968 36.459 17.8839 37.8671 19.3052C38.6699 20.1211 39.8806 20.5027 40.9991 20.279C42.0387 20.0948 42.9468 19.3973 43.4468 18.4761C44.3154 16.9101 44.0653 14.752 42.7362 13.5281C41.8808 12.7385 40.6307 12.4096 39.4989 12.6991Z" fill="#FA3913"/>
<path d="M53.0531 10.1987C55.0402 9.81715 57.2116 10.3698 58.6986 11.7647C61.12 13.9361 61.3832 18.0024 59.3171 20.5027C58.0669 22.0819 56.0404 22.9504 54.0401 22.8583C52.132 22.8057 50.2501 21.8582 49.1184 20.2922C47.8419 18.5683 47.5656 16.1995 48.2894 14.1861C49.0131 12.1332 50.9081 10.5672 53.0531 10.1987ZM53.4479 12.6991C52.7373 12.8833 52.0793 13.2912 51.6056 13.8571C50.3423 15.3573 50.3949 17.805 51.7503 19.2394C52.5531 20.0948 53.8032 20.5159 54.9613 20.279C55.9877 20.0816 56.9089 19.3973 57.409 18.4761C58.2643 16.897 58.0143 14.7388 56.672 13.515C55.8167 12.7254 54.5665 12.4095 53.4479 12.6991Z" fill="#FCBD06"/>
<path d="M64.8838 10.9614C66.3971 10.0139 68.4105 9.75078 70.0423 10.5666C70.5556 10.7903 70.9767 11.172 71.3846 11.5536C71.3978 11.1983 71.3846 10.8298 71.3978 10.4613C72.2795 10.4745 73.1612 10.4613 74.056 10.4745V22.0813C74.0429 23.8315 73.5954 25.687 72.3321 26.9635C70.9504 28.3716 68.8317 28.8059 66.9235 28.5164C64.8838 28.2137 63.1072 26.7266 62.3176 24.8448C63.1072 24.4632 63.9363 24.1605 64.7522 23.8052C65.2128 24.8843 66.1471 25.8055 67.3183 26.016C68.4895 26.2266 69.8449 25.9371 70.6082 24.9633C71.4241 23.9631 71.4241 22.5945 71.3846 21.3707C70.7793 21.9629 70.0818 22.4892 69.2396 22.6866C67.4104 23.1999 65.397 22.5682 63.9889 21.3312C62.5677 20.0942 61.7255 18.186 61.8044 16.2911C61.8439 14.146 63.0546 12.08 64.8838 10.9614ZM67.6078 12.6458C66.8051 12.7774 66.055 13.2249 65.5418 13.8434C64.3047 15.3172 64.3047 17.6728 65.5549 19.1204C66.2655 19.9758 67.4104 20.4495 68.5158 20.3311C69.5554 20.2258 70.5161 19.5678 71.0293 18.6598C71.8978 17.1201 71.7531 15.0277 70.5819 13.6855C69.8581 12.8564 68.7001 12.4484 67.6078 12.6458Z" fill="#3780FF"/>
<path d="M82.2677 11.633C83.8469 10.1591 86.2815 9.65905 88.3081 10.4354C90.2294 11.1592 91.4532 12.9884 92.0717 14.8702C89.2161 16.0546 86.3736 17.2258 83.5179 18.4102C83.9127 19.1603 84.5181 19.8446 85.334 20.1209C86.4789 20.5289 87.8475 20.3841 88.8081 19.6209C89.1898 19.3314 89.4924 18.9497 89.7819 18.5813C90.5057 19.0682 91.2295 19.5419 91.9533 20.0288C90.9268 21.5685 89.2029 22.6476 87.3474 22.8187C85.2945 23.0687 83.11 22.2791 81.7808 20.6736C79.5963 18.147 79.8069 13.9096 82.2677 11.633ZM83.6758 14.0675C83.2284 14.7123 83.0442 15.5019 83.0573 16.2783C84.9655 15.4887 86.8736 14.6992 88.7818 13.8964C88.466 13.1595 87.7027 12.712 86.9263 12.5936C85.6761 12.3699 84.3733 13.041 83.6758 14.0675Z" fill="#FA3913"/>
</svg>
