<svg width="106" height="32" viewBox="0 0 106 32" fill="none" xmlns="http://www.w3.org/2000/svg">
<path d="M28.6454 3H10.2774C8.99739 3 7.97339 4.024 7.97339 5.304V26.296C7.97339 27.576 8.99739 28.6 10.2774 28.6H28.6454C29.9254 28.6 30.9494 27.576 30.9494 26.296V5.304C30.9494 4.024 29.9254 3 28.6454 3ZM29.6694 26.296C29.6694 26.872 29.2214 27.32 28.6454 27.32H10.2774C9.70139 27.32 9.25339 26.872 9.25339 26.296V5.304C9.25339 4.728 9.70139 4.28 10.2774 4.28H28.6454C29.2214 4.28 29.6694 4.728 29.6694 5.304V26.296ZM13.7334 24.76L16.6134 22.2L13.7334 19.64V24.76ZM24.1014 14.392C23.5894 13.88 22.6294 13.24 21.0294 13.24C19.3014 13.24 17.5094 13.688 16.2294 14.136V6.84H13.7334V17.912L15.5254 17.08C15.5254 17.08 18.4694 15.736 21.0294 15.736C22.3094 15.736 22.6294 16.44 22.6294 17.08V24.76H25.1894V17.08C25.1894 16.888 25.1894 15.48 24.1014 14.392ZM20.7094 11H23.2694C24.4214 9.656 24.9974 8.312 25.1894 6.84H22.6294C22.3734 8.312 21.7334 9.656 20.7094 11ZM91.4295 17.016V11.32H93.9895V16.952C93.9895 18.232 94.4375 18.872 95.4615 18.872C96.4855 18.872 96.8695 18.296 96.8695 16.952V11.32H99.3655V17.016C99.3655 19.512 98.1495 20.984 95.3975 20.984C92.6455 20.984 91.4295 19.512 91.4295 17.016ZM80.6775 11.384H83.2375V14.84L85.8615 11.384H88.8055L85.6055 15.096L89.0615 20.856H86.1815L83.9415 17.08L83.2375 17.912V20.856H80.6775V11.384ZM68.5175 16.056C68.5175 12.6 70.8855 11.128 73.1895 11.128C75.4935 11.128 77.8615 12.6 77.8615 16.056C77.8615 19.512 75.4935 20.984 73.1895 20.984C70.8855 20.984 68.5175 19.576 68.5175 16.056ZM75.2375 16.056C75.2375 14.328 74.4695 13.24 73.1255 13.24C71.7815 13.24 71.0135 14.328 71.0135 16.056C71.0135 17.784 71.7815 18.936 73.1255 18.936C74.4695 18.936 75.2375 17.848 75.2375 16.056ZM58.2135 11.384H61.9255C64.3575 11.384 65.8295 12.216 65.8295 14.456C65.8295 15.928 65.1895 16.824 63.9735 17.208L65.9575 20.856H63.2695L61.4135 17.592H60.7095V20.856H58.2135V11.384ZM61.8615 15.608C62.8855 15.608 63.3975 15.288 63.3975 14.52C63.3975 13.752 62.9495 13.432 61.8615 13.432H60.7735V15.608H61.8615ZM48.4214 11.384H55.2055V13.496H50.9814V15.032H53.9895V17.016H50.9814V18.744H55.3975V20.792H48.4214V11.384ZM36.8374 11.384H39.3974V14.904H42.5334V11.384H45.0934V20.856H42.5334V17.016H39.3974V20.856H36.8374V11.384Z" fill="#430098"/>
</svg>
