<svg width="106" height="32" viewBox="0 0 106 32" fill="none" xmlns="http://www.w3.org/2000/svg">
<path d="M103.825 19.555C103.507 19.555 103.249 19.813 103.249 20.1306C103.249 20.4483 103.507 20.7062 103.825 20.7062C104.142 20.7062 104.4 20.4483 104.4 20.1306C104.4 19.813 104.142 19.555 103.825 19.555ZM103.825 20.615C103.557 20.615 103.34 20.3971 103.34 20.1306C103.34 19.8629 103.558 19.6463 103.825 19.6463C104.092 19.6463 104.31 19.8641 104.31 20.1306C104.31 20.3971 104.092 20.615 103.825 20.615ZM104.012 20.0321C104.012 19.9274 103.938 19.8653 103.828 19.8653H103.644V20.3898H103.734V20.2H103.833L103.928 20.3898H104.025L103.921 20.1806C103.977 20.155 104.012 20.1038 104.012 20.0321ZM103.825 20.1185H103.736V19.9445H103.825C103.885 19.9445 103.922 19.9749 103.922 20.0309C103.922 20.0881 103.884 20.1185 103.825 20.1185ZM34.4685 13.7296V12.3375H32.3341V20.6198H34.4685V15.6536C34.4685 14.7543 35.0454 14.3125 35.9447 14.3125H37.1129V12.3375H36.115C35.3338 12.3375 34.6547 12.7451 34.4685 13.7296ZM39.1123 9.06152C38.3822 9.06152 37.8224 9.63835 37.8224 10.3685C37.8224 11.0816 38.3822 11.6585 39.1123 11.6585C39.8425 11.6585 40.4023 11.0816 40.4023 10.3685C40.4022 9.63832 39.8425 9.06152 39.1123 9.06152ZM38.0475 20.6198H40.1771V12.3375H38.0475V20.6198ZM50.3214 16.4786C50.3214 18.8431 48.4047 20.7598 46.0402 20.7598C45.0861 20.7598 44.2209 20.4471 43.5273 19.9189V23.0513H41.3977V12.3375H43.5273V13.0384C44.2209 12.5103 45.0861 12.1975 46.0402 12.1975C48.4047 12.1975 50.3214 14.1142 50.3214 16.4786ZM48.1784 16.4786C48.1784 15.1948 47.1367 14.1531 45.8528 14.1531C44.569 14.1531 43.5273 15.1948 43.5273 16.4786C43.5273 17.7625 44.569 18.8042 45.8528 18.8042C47.1367 18.8042 48.1784 17.7637 48.1784 16.4786ZM87.3352 15.7522L86.0927 15.4114C85.275 15.1984 84.9574 14.9478 84.9574 14.5158C84.9574 14.0947 85.4052 13.8002 86.0453 13.8002C86.655 13.8002 87.1332 14.1994 87.1332 14.7105V14.7579H89.0961V14.7105C89.0961 13.2075 87.8707 12.1975 86.0453 12.1975C84.2382 12.1975 82.9251 13.2063 82.9251 14.5973C82.9251 15.6791 83.6419 16.4944 84.8929 16.8327L86.083 17.1577C86.9872 17.4083 87.3231 17.6858 87.3231 18.1836C87.3231 18.7081 86.8375 19.0609 86.1146 19.0609C85.3613 19.0609 84.8539 18.5839 84.8539 17.8757V17.8282H82.7705V17.8757C82.7705 19.5745 84.1384 20.7622 86.0976 20.7622C87.9851 20.7622 89.3553 19.6025 89.3553 18.0059C89.3553 17.2222 89.0048 16.1976 87.3352 15.7522ZM57.876 12.3375H60.0056V20.6198H57.876V19.9189C57.1824 20.447 56.3171 20.7598 55.3631 20.7598C52.9986 20.7598 51.082 18.8431 51.082 16.4786C51.082 14.1141 52.9986 12.1975 55.3631 12.1975C56.3171 12.1975 57.1824 12.5102 57.876 13.0384V12.3375ZM57.876 16.4786C57.876 15.1936 56.8343 14.1531 55.5505 14.1531C54.2666 14.1531 53.225 15.1948 53.225 16.4786C53.225 17.7625 54.2666 18.8042 55.5505 18.8042C56.8355 18.8042 57.876 17.7637 57.876 16.4786ZM67.6954 9.39008H69.825V20.621H67.6954V19.9201C67.0017 20.4482 66.1365 20.761 65.1824 20.761C62.8179 20.761 60.9013 18.8443 60.9013 16.4798C60.9013 14.1153 62.8179 12.1987 65.1824 12.1987C66.1365 12.1987 67.0017 12.5115 67.6954 13.0396V9.39008ZM67.6954 16.4786C67.6954 15.1948 66.6536 14.1531 65.3698 14.1531C64.086 14.1531 63.0443 15.1948 63.0443 16.4786C63.0443 17.7625 64.0847 18.8042 65.3698 18.8042C66.6536 18.8042 67.6954 17.7637 67.6954 16.4786ZM79.7124 20.6198H81.842V12.3375H79.7124V20.6198ZM80.7772 9.06152C80.0471 9.06152 79.4873 9.63835 79.4873 10.3685C79.4873 11.0816 80.0471 11.6585 80.7772 11.6585C81.5074 11.6585 82.0672 11.0816 82.0672 10.3685C82.0672 9.63832 81.5074 9.06152 80.7772 9.06152ZM98.5601 16.4786C98.5601 18.8431 96.6435 20.7598 94.2789 20.7598C91.9145 20.7598 89.9978 18.8431 89.9978 16.4786C89.9978 14.1142 91.9145 12.1975 94.2789 12.1975C96.6435 12.1975 98.5601 14.1142 98.5601 16.4786ZM96.6045 16.4786C96.6045 15.1948 95.5628 14.1531 94.279 14.1531C92.9951 14.1531 91.9534 15.1948 91.9534 16.4786C91.9534 17.7625 92.9939 18.8042 94.279 18.8042C95.5628 18.8042 96.6045 17.7637 96.6045 16.4786ZM33.3782 9.39008H25.209V11.2897H28.233V20.6198H30.3554V11.2897H33.3794V9.39008H33.3782ZM74.6914 18.3515L72.7967 12.3375H70.56L73.4015 20.6198H75.9643L78.8228 12.3375H76.5861L74.6914 18.3515ZM101.68 13.7296V12.3375H99.5458V20.6198H101.68V15.6536C101.68 14.7543 102.257 14.3125 103.156 14.3125H104.325V12.3375H103.327C102.545 12.3375 101.868 12.7451 101.68 13.7296Z" fill="black"/>
<path d="M12.8914 26.7828C18.9066 26.7828 23.7828 21.9066 23.7828 15.8914C23.7828 9.87625 18.9066 5 12.8914 5C6.87625 5 2 9.87625 2 15.8914C2 21.9066 6.87625 26.7828 12.8914 26.7828Z" fill="#34E0A1"/>
<path d="M19.6184 13.7669L20.9327 12.337H18.0181C16.5591 11.3403 14.7969 10.7598 12.8913 10.7598C10.988 10.7598 9.23077 11.3416 7.77411 12.337H4.85229L6.16657 13.7669C5.36098 14.5019 4.85596 15.5606 4.85596 16.7362C4.85596 18.9546 6.65459 20.7532 8.87303 20.7532C9.92688 20.7532 10.887 20.3467 11.6038 19.6823L12.8913 21.0842L14.1788 19.6835C14.8956 20.348 15.8545 20.7532 16.9083 20.7532C19.1268 20.7532 20.9278 18.9546 20.9278 16.7362C20.929 15.5594 20.424 14.5007 19.6184 13.7669ZM8.87422 19.4547C7.37252 19.4547 6.15564 18.2378 6.15564 16.7362C6.15564 15.2345 7.37255 14.0175 8.87422 14.0175C10.3759 14.0175 11.5928 15.2345 11.5928 16.7362C11.5928 18.2378 10.3759 19.4547 8.87422 19.4547ZM12.8925 16.6571C12.8925 14.8682 11.5916 13.3324 9.87453 12.6765C10.803 12.2883 11.8216 12.0729 12.8913 12.0729C13.9609 12.0729 14.9807 12.2883 15.9092 12.6765C14.1934 13.3336 12.8925 14.8682 12.8925 16.6571ZM16.9095 19.4547C15.4078 19.4547 14.1909 18.2378 14.1909 16.7362C14.1909 15.2345 15.4078 14.0175 16.9095 14.0175C18.4112 14.0175 19.6281 15.2345 19.6281 16.7362C19.6281 18.2378 18.4112 19.4547 16.9095 19.4547ZM16.9095 15.3099C16.1222 15.3099 15.4845 15.9476 15.4845 16.7349C15.4845 17.5223 16.1222 18.1599 16.9095 18.1599C17.6969 18.1599 18.3345 17.5223 18.3345 16.7349C18.3345 15.9488 17.6969 15.3099 16.9095 15.3099ZM10.2992 16.7362C10.2992 17.5235 9.66155 18.1612 8.87422 18.1612C8.08689 18.1612 7.44921 17.5235 7.44921 16.7362C7.44921 15.9488 8.08689 15.3111 8.87422 15.3111C9.66155 15.3099 10.2992 15.9488 10.2992 16.7362Z" fill="black"/>
</svg>
