<svg width="106" height="32" viewBox="0 0 106 32" fill="none" xmlns="http://www.w3.org/2000/svg">
<path d="M13.1044 9.8716L7.0389 13.7432L13.1044 17.6148L7.0389 21.4864L0.973389 17.5826L7.0389 13.7109L0.973389 9.8716L7.0389 6L13.1044 9.8716ZM7.00664 22.7124L13.0722 18.8408L19.1377 22.7124L13.0722 26.584L7.00664 22.7124ZM13.1044 17.5826L19.1699 13.7109L13.1044 9.8716L19.1377 6L25.2032 9.8716L19.1377 13.7432L25.2032 17.6148L19.1377 21.4864L13.1044 17.5826Z" fill="#0061FF"/>
<path d="M29.9458 9.87227H34.8498C37.9794 9.87227 40.5605 11.6791 40.5605 15.8088V16.6799C40.5605 20.8419 38.1407 22.7131 34.9466 22.7131H29.9458V9.87227ZM32.6882 12.1953V20.3579H34.7853C36.5598 20.3579 37.7535 19.1964 37.7535 16.6154V15.9378C37.7535 13.3568 36.4953 12.1953 34.6885 12.1953H32.6882ZM42.0123 12.3243H44.2062L44.5611 14.7441C44.9806 13.0986 46.0452 12.2275 47.9811 12.2275H48.6586V15.0022H47.5294C45.3032 15.0022 44.7547 15.7765 44.7547 17.9704V22.7454H42.0446V12.3243H42.0123ZM49.2071 17.7446V17.4542C49.2071 13.9698 51.4332 12.0662 54.466 12.0662C57.5633 12.0662 59.7249 13.9698 59.7249 17.4542V17.7446C59.7249 21.1645 57.6278 23.0035 54.466 23.0035C51.1106 22.9712 49.2071 21.1645 49.2071 17.7446ZM56.9503 17.7123V17.4542C56.9503 15.5184 55.9824 14.3569 54.4337 14.3569C52.9174 14.3569 51.9172 15.4216 51.9172 17.4542V17.7123C51.9172 19.5836 52.8851 20.6483 54.4337 20.6483C55.9824 20.616 56.9503 19.5836 56.9503 17.7123ZM61.1445 12.3243H63.403L63.6611 14.2924C64.2096 12.9696 65.371 12.0662 67.081 12.0662C69.7266 12.0662 71.4688 13.9698 71.4688 17.4865V17.7768C71.4688 21.1968 69.533 23.0035 67.081 23.0035C65.4356 23.0035 64.3063 22.2614 63.7579 21.0677V26.3266H61.1123L61.1445 12.3243ZM68.7264 17.7123V17.4865C68.7264 15.4216 67.6617 14.3892 66.2421 14.3892C64.7258 14.3892 63.7256 15.5507 63.7256 17.4865V17.68C63.7256 19.5191 64.6935 20.6805 66.2099 20.6805C67.7585 20.6483 68.7264 19.6481 68.7264 17.7123ZM75.4695 20.8096L75.2436 22.7131H72.9207V8.83984H75.5663V14.1633C76.147 12.8083 77.3085 12.0662 78.9539 12.0662C81.4382 12.0985 83.2772 13.8084 83.2772 17.2606V17.5833C83.2772 21.0354 81.535 23.0035 78.8894 23.0035C77.1472 22.9712 76.018 22.1647 75.4695 20.8096ZM80.5026 17.5833V17.3251C80.5026 15.4216 79.4701 14.3569 78.0183 14.3569C76.5342 14.3569 75.5017 15.5507 75.5017 17.3574V17.5833C75.5017 19.5191 76.5019 20.6483 77.986 20.6483C79.5669 20.6483 80.5026 19.6481 80.5026 17.5833ZM84.4387 17.7446V17.4542C84.4387 13.9698 86.6649 12.0662 89.6977 12.0662C92.7949 12.0662 94.9566 13.9698 94.9566 17.4542V17.7446C94.9566 21.1645 92.8272 23.0035 89.6977 23.0035C86.3423 22.9712 84.4387 21.1645 84.4387 17.7446ZM92.2142 17.7123V17.4542C92.2142 15.5184 91.2463 14.3569 89.6977 14.3569C88.1813 14.3569 87.1811 15.4216 87.1811 17.4542V17.7123C87.1811 19.5836 88.149 20.6483 89.6977 20.6483C91.2463 20.616 92.2142 19.5836 92.2142 17.7123ZM98.5056 17.3251L94.8598 12.3243H97.9894L100.086 15.4539L102.216 12.3243H105.313L101.603 17.2929L105.507 22.7131H102.442L100.054 19.261L97.7312 22.7131H94.5372L98.5056 17.3251Z" fill="black"/>
</svg>
