<svg width="106" height="32" viewBox="0 0 106 32" fill="none" xmlns="http://www.w3.org/2000/svg">
<path fill-rule="evenodd" clip-rule="evenodd" d="M54.8326 15.3252C54.0383 15.3252 53.4658 15.5879 52.8852 15.8555V21.9106C53.4413 21.964 53.7601 21.964 54.2877 21.964C56.1942 21.964 56.4555 21.0836 56.4555 19.8542V16.9622C56.4555 16.0544 56.1568 15.3252 54.8326 15.3252ZM42.1692 14.9947C40.8464 14.9947 40.5446 15.727 40.5446 16.634V17.1436H43.7921V16.634C43.7921 15.727 43.4902 14.9947 42.1692 14.9947ZM17.6411 21.2972C17.6411 22.0147 17.9768 22.3874 18.7177 22.3874C19.5124 22.3874 19.983 22.1261 20.5632 21.8576V20.4212H18.8254C18.0026 20.4212 17.6411 20.5757 17.6411 21.2972ZM67.1458 15.3252C65.8208 15.3252 65.3617 16.0544 65.3617 16.9622V20.2754C65.3617 21.1855 65.8208 21.9169 67.1458 21.9169C68.4672 21.9169 68.9298 21.1855 68.9298 20.2754V16.9622C68.9294 16.0544 68.4668 15.3252 67.1458 15.3252ZM11.1477 25.0122H7.25278V15.5052H5.30664V12.2293H7.25322V10.2619C7.25322 7.58899 8.35162 6 11.4736 6H14.0729V9.27676H12.4483C11.2328 9.27676 11.1526 9.73473 11.1526 10.5892L11.1477 12.2289H14.0907L13.7466 15.5048H11.1477V25.0122ZM24.4604 25.0369H21.2142L21.0739 24.209C19.5917 25.0369 18.2689 25.1711 17.3963 25.1711C15.0156 25.1711 13.7484 23.5673 13.7484 21.3493C13.7484 18.7326 15.2271 17.7987 17.8722 17.7987H20.5646V17.2329C20.5646 15.8972 20.4127 15.5052 18.3758 15.5052H15.0454L15.3709 12.2293H19.0111C23.4804 12.2293 24.4604 13.6531 24.4604 17.2594V25.0369ZM35.4978 15.7454C33.4777 15.3961 32.8976 15.3193 31.9256 15.3193C30.1799 15.3193 29.6523 15.7077 29.6523 17.2029V20.0311C29.6523 21.5262 30.1799 21.9164 31.9256 21.9164C32.8976 21.9164 33.4777 21.8383 35.4978 21.4876V24.6831C33.7284 25.0832 32.5757 25.1882 31.6015 25.1882C27.4198 25.1882 25.7578 22.9706 25.7578 19.7671V17.4723C25.7578 14.266 27.4198 12.0444 31.6015 12.0444C32.5757 12.0444 33.7284 12.1499 35.4978 12.5517V15.7454ZM47.6854 19.7671H40.5429V20.0311C40.5429 21.5262 41.0709 21.9164 42.8163 21.9164C44.3853 21.9164 45.343 21.8383 47.3595 21.4876V24.6831C45.4147 25.0832 44.4013 25.1882 42.4935 25.1882C38.3113 25.1882 36.6484 22.9707 36.6484 19.7671V17.1432C36.6484 14.3401 37.8821 12.0444 42.1676 12.0444C46.453 12.0444 47.6854 14.3136 47.6854 17.1432V19.7671ZM60.3479 19.8277C60.3479 22.9239 59.4703 25.1824 54.1541 25.1824C52.2343 25.1824 51.1083 25.0122 48.9894 24.6835V6.9842L52.883 6.32911V12.5203C53.7245 12.2051 54.8135 12.0448 55.8046 12.0448C59.6987 12.0448 60.3474 13.8053 60.3474 16.6344L60.3479 19.8277ZM72.8292 19.895C72.8292 22.5661 71.7357 25.1568 67.1604 25.1568C62.5829 25.1568 61.469 22.5661 61.469 19.895V17.316C61.469 14.6436 62.5829 12.0524 67.1604 12.0524C71.7357 12.0524 72.8292 14.6436 72.8292 17.316V19.895ZM85.3033 19.895C85.3033 22.566 84.2085 25.1567 79.6341 25.1567C75.0566 25.1567 73.9426 22.566 73.9426 19.895V17.3159C73.9426 14.6435 75.0566 12.0524 79.6341 12.0524C84.2085 12.0524 85.3033 14.6435 85.3033 17.3159V19.895ZM98.104 25.0121H93.8836L90.3141 19.0032V25.0121H86.4192V6.98364L90.3141 6.32855V17.9346L93.8836 12.2292H98.104L94.2073 18.4554L98.104 25.0121ZM79.6195 15.3252C78.2967 15.3252 77.8377 16.0543 77.8377 16.9622V20.2753C77.8377 21.1854 78.2967 21.9168 79.6195 21.9168C80.9406 21.9168 81.4081 21.1854 81.4081 20.2753V16.9622C81.4081 16.0543 80.9406 15.3252 79.6195 15.3252ZM100.324 22.77C100.98 22.77 101.502 23.3093 101.502 23.9828C101.502 24.6666 100.979 25.2 100.319 25.2C99.6618 25.2 99.1288 24.6666 99.1288 23.9828C99.1288 23.3093 99.6618 22.77 100.319 22.77H100.324ZM100.319 22.9585C99.7905 22.9585 99.3582 23.4169 99.3582 23.9827C99.3582 24.5587 99.791 25.0113 100.324 25.0113C100.857 25.0167 101.283 24.5587 101.283 23.9881C101.283 23.4174 100.857 22.9585 100.324 22.9585H100.319ZM100.098 24.6885H99.8846V23.3352C99.9968 23.3195 100.104 23.3038 100.264 23.3038C100.467 23.3038 100.6 23.3469 100.681 23.4057C100.76 23.4654 100.802 23.5565 100.802 23.6854C100.802 23.8641 100.686 23.9714 100.542 24.015V24.0253C100.659 24.0473 100.739 24.1542 100.766 24.3531C100.797 24.5636 100.829 24.644 100.85 24.688H100.626C100.595 24.644 100.562 24.5205 100.536 24.3423C100.504 24.1703 100.418 24.1057 100.247 24.1057H100.099L100.098 24.6885ZM100.095 23.9396H100.25C100.426 23.9396 100.575 23.8745 100.575 23.707C100.575 23.5885 100.49 23.4704 100.25 23.4704C100.18 23.4704 100.132 23.4758 100.095 23.4807V23.9396Z" fill="#1877F2"/>
</svg>
