<svg width="106" height="32" viewBox="0 0 106 32" fill="none" xmlns="http://www.w3.org/2000/svg">
<path d="M103.515 14.6464V12.8899H101.334V10.1593L101.26 10.1819L99.2115 10.8087L99.1711 10.821V12.89H95.9375V11.7374C95.9375 11.2007 96.0575 10.79 96.294 10.5161C96.5289 10.2455 96.8648 10.1079 97.2933 10.1079C97.6013 10.1079 97.9202 10.1804 98.2412 10.3235L98.3216 10.3595V8.50972L98.2838 8.49581C97.9844 8.38818 97.5771 8.33398 97.0723 8.33398C96.4361 8.33398 95.8581 8.47243 95.3539 8.74682C94.8495 9.02159 94.4527 9.41384 94.1748 9.91257C93.8978 10.4107 93.7572 10.986 93.7572 11.6227V12.8899H92.2384V14.6464H93.7572V22.046H95.9375V14.6464H99.1711V19.3487C99.1711 21.2853 100.085 22.2668 101.886 22.2668C102.182 22.2668 102.494 22.2321 102.812 22.1642C103.136 22.0944 103.356 22.0247 103.486 21.9503L103.515 21.9333V20.1607L103.426 20.2193C103.308 20.2981 103.16 20.3626 102.988 20.4105C102.814 20.4593 102.669 20.4837 102.557 20.4837C102.135 20.4837 101.823 20.37 101.629 20.1456C101.433 19.9191 101.334 19.5231 101.334 18.9691V14.6464H103.515ZM87.3694 20.484C86.578 20.484 85.9541 20.2216 85.5144 19.7047C85.072 19.1852 84.8479 18.4446 84.8479 17.5036C84.8479 16.5327 85.072 15.7728 85.5146 15.2441C85.9546 14.7189 86.5725 14.4524 87.3516 14.4524C88.1076 14.4524 88.7095 14.7069 89.1406 15.2094C89.5738 15.7145 89.7937 16.4683 89.7937 17.4505C89.7937 18.4448 89.5869 19.2085 89.1792 19.7194C88.7743 20.2264 88.1654 20.484 87.3694 20.484ZM87.4663 12.6693C85.9565 12.6693 84.7573 13.1117 83.9023 13.9843C83.0478 14.8569 82.6146 16.0645 82.6146 17.5738C82.6146 19.0074 83.0375 20.1605 83.8717 21.0005C84.7058 21.8409 85.8411 22.2666 87.2456 22.2666C88.7091 22.2666 89.8844 21.818 90.739 20.9334C91.5936 20.0497 92.0265 18.8536 92.0265 17.3795C92.0265 15.9235 91.6203 14.7618 90.8187 13.9274C90.0167 13.0925 88.8886 12.6693 87.4663 12.6693ZM79.0993 12.6693C78.0723 12.6693 77.2228 12.932 76.5738 13.45C75.9209 13.971 75.5897 14.6544 75.5897 15.4813C75.5897 15.9111 75.6612 16.293 75.8018 16.6168C75.9434 16.9417 76.1624 17.2278 76.4534 17.4679C76.7422 17.7061 77.188 17.9555 77.7787 18.2093C78.2753 18.4137 78.6456 18.5865 78.8809 18.7227C79.1108 18.8563 79.274 18.9905 79.3661 19.1212C79.4557 19.2491 79.5011 19.4242 79.5011 19.6402C79.5011 20.2553 79.0405 20.5547 78.0926 20.5547C77.741 20.5547 77.3399 20.4812 76.9006 20.3365C76.4645 20.194 76.0528 19.9852 75.68 19.7176L75.5895 19.6527V21.7518L75.6227 21.7673C75.9312 21.9097 76.3202 22.0298 76.7786 22.1243C77.2362 22.2188 77.6519 22.267 78.0131 22.267C79.1275 22.267 80.025 22.003 80.6798 21.482C81.3388 20.9573 81.6728 20.2578 81.6728 19.4023C81.6728 18.7851 81.493 18.2559 81.1386 17.829C80.7867 17.4057 80.1758 17.017 79.3237 16.6734C78.6449 16.401 78.2101 16.1748 78.0306 16.0012C77.8577 15.8335 77.7699 15.5963 77.7699 15.2959C77.7699 15.0296 77.8783 14.8163 78.1008 14.6436C78.325 14.4699 78.6372 14.3816 79.0287 14.3816C79.3919 14.3816 79.7636 14.439 80.1333 14.5515C80.5026 14.6639 80.8271 14.8146 81.0979 14.9988L81.1869 15.0597V13.0685L81.1527 13.0538C80.9029 12.9466 80.5734 12.8549 80.1733 12.7805C79.7749 12.7066 79.4136 12.6693 79.0993 12.6693ZM69.9057 20.484C69.1146 20.484 68.4904 20.2216 68.0508 19.7047C67.6083 19.1852 67.3846 18.4448 67.3846 17.5036C67.3846 16.5327 67.6086 15.7728 68.0513 15.2441C68.4909 14.7189 69.1088 14.4524 69.8883 14.4524C70.644 14.4524 71.2458 14.7069 71.677 15.2094C72.1103 15.7145 72.3301 16.4683 72.3301 17.4505C72.3301 18.4448 72.1232 19.2085 71.7155 19.7194C71.3106 20.2264 70.702 20.484 69.9057 20.484ZM70.0029 12.6693C68.4928 12.6693 67.2935 13.1117 66.4389 13.9843C65.5845 14.8569 65.151 16.0645 65.151 17.5738C65.151 19.0079 65.5741 20.1605 66.4083 21.0005C67.2425 21.8409 68.3776 22.2666 69.7821 22.2666C71.2454 22.2666 72.421 21.818 73.2757 20.9334C74.13 20.0497 74.5632 18.8536 74.5632 17.3795C74.5632 15.9235 74.1568 14.7618 73.355 13.9274C72.5528 13.0925 71.4249 12.6693 70.0029 12.6693ZM61.8413 14.4755V12.8899H59.6876V22.0458H61.8413V17.3622C61.8413 16.5658 62.0219 15.9115 62.3782 15.4174C62.73 14.9291 63.1988 14.6816 63.7711 14.6816C63.9651 14.6816 64.1829 14.7136 64.4187 14.7769C64.6521 14.8398 64.8212 14.9081 64.9209 14.98L65.0114 15.0456V12.8743L64.9766 12.8593C64.776 12.7741 64.4922 12.7311 64.1332 12.7311C63.592 12.7311 63.1077 12.905 62.6928 13.2474C62.3286 13.5483 62.0655 13.961 61.8642 14.4755H61.8413ZM55.8306 12.6693C54.8426 12.6693 53.9612 12.8812 53.2116 13.2989C52.4604 13.7175 51.8795 14.3152 51.4842 15.0751C51.0907 15.8333 50.8909 16.7188 50.8909 17.7064C50.8909 18.5715 51.0846 19.3654 51.4675 20.0651C51.8506 20.7659 52.3928 21.3142 53.0792 21.6945C53.7645 22.0743 54.5567 22.2669 55.4337 22.2669C56.4573 22.2669 57.3312 22.0622 58.0318 21.6587L58.0601 21.6424V19.6693L57.9696 19.7354C57.6522 19.9666 57.2975 20.1511 56.9159 20.284C56.5353 20.4169 56.1882 20.484 55.8839 20.484C55.0388 20.484 54.3604 20.2196 53.8679 19.6983C53.3744 19.1762 53.1242 18.4432 53.1242 17.5208C53.1242 16.5927 53.3851 15.8408 53.8994 15.2861C54.4121 14.7329 55.0918 14.4524 55.9194 14.4524C56.6273 14.4524 57.3172 14.6921 57.9698 15.1655L58.0601 15.2311V13.152L58.0309 13.1356C57.7853 12.9981 57.4504 12.8846 57.0346 12.7985C56.6205 12.7126 56.2155 12.6693 55.8306 12.6693ZM49.4076 12.89H47.2539V22.0458H49.4076V12.89ZM48.3528 8.98961C47.9983 8.98961 47.6891 9.11028 47.4351 9.3494C47.1801 9.5892 47.0507 9.89112 47.0507 10.2474C47.0507 10.5981 47.1785 10.8945 47.4312 11.1279C47.6822 11.3607 47.9923 11.4787 48.3529 11.4787C48.7133 11.4787 49.0246 11.3607 49.2786 11.1283C49.5343 10.8945 49.6639 10.5982 49.6639 10.2474C49.6639 9.90358 49.5377 9.60475 49.2892 9.35906C49.0408 9.11385 48.7256 8.98961 48.3528 8.98961ZM42.9791 12.2145V22.0458H45.177V9.26989H42.1349L38.2682 18.7595L34.5158 9.26989H31.3499V22.0457H33.4154V12.2135H33.4863L37.4487 22.0458H39.0075L42.9081 12.2145H42.9791Z" fill="#706D6E"/>
<path d="M13.7717 15.1318H3.63989V5H13.7717V15.1318Z" fill="#F1511B"/>
<path d="M24.9582 15.1328H14.8267V5.00098H24.9582V15.1328Z" fill="#80CC28"/>
<path d="M13.7714 26.3231H3.63989V16.1914H13.7714V26.3231Z" fill="#00ADEF"/>
<path d="M24.9582 26.3231H14.8267V16.1914H24.9582V26.3231Z" fill="#FBBC09"/>
</svg>
