<svg width="106" height="32" viewBox="0 0 106 32" fill="none" xmlns="http://www.w3.org/2000/svg">
<path d="M40.3605 13.0418C40.3605 10.5001 42.2137 8.72532 45.5815 8.72532C47.6364 8.72532 49.3179 9.38142 50.2289 10.0241C50.3593 10.1159 50.5919 10.3385 50.4524 10.7526C50.2737 11.1986 49.9459 11.8693 49.7107 12.3049C49.5738 12.5588 49.2242 12.5254 49.0452 12.4346C48.3963 12.1058 47.3319 11.5495 46.3542 11.447C46.1066 11.42 45.8576 11.4092 45.6086 11.4147C44.7475 11.4339 44.0281 11.7329 43.7748 12.3899C43.7251 12.5142 43.6974 12.6461 43.6929 12.7799C43.6693 13.6456 44.8741 13.9587 46.3336 14.2094C49.0471 14.6743 51.0999 15.4698 51.0999 18.2626C51.0999 20.6344 49.215 22.7778 45.5218 22.7121C43.0871 22.6629 41.3598 21.8402 40.4342 21.0419C40.4027 21.0148 40.0503 20.656 40.2392 20.2244C40.4553 19.6688 40.8202 19.0321 41.1065 18.694C41.2656 18.4769 41.6857 18.4424 41.9041 18.5777C42.667 19.0518 43.9226 19.8121 45.37 19.8625C45.4842 19.8664 45.5974 19.8671 45.7086 19.8642C47.0105 19.8326 47.7982 19.339 47.7817 18.5074C47.7676 17.7748 46.7354 17.3469 45.0916 17.0371C42.4699 16.5432 40.3605 15.6791 40.3605 13.0418ZM64.1778 16.6609C62.3291 16.6851 60.634 17.1904 60.5851 18.6352C60.5846 19.7817 61.5147 20.3448 62.82 20.2711C64.0722 20.1505 65.0271 19.6074 65.4478 18.8868C65.6034 18.6198 65.6271 17.6204 65.6176 17.1933C65.6152 17.1024 65.4355 16.9304 65.3567 16.8973C64.9639 16.7318 64.6733 16.6809 64.1778 16.6609ZM58.0263 10.8392C58.8908 10.0656 60.6049 8.86151 63.3366 8.92498C66.9417 8.99994 68.8462 10.69 69.0235 14.7329C69.0966 16.4002 68.9755 21.0507 68.9467 22.2093C68.9424 22.3756 68.8861 22.4905 68.6621 22.4948C68.0685 22.5186 66.6969 22.5092 66.0667 22.5009C65.7487 22.4855 65.7118 22.3277 65.7077 22.1625C65.7049 22.0545 65.6957 21.734 65.689 21.4728C65.6854 21.3342 65.5552 21.3382 65.5219 21.3737C64.6763 22.2766 63.2914 22.7126 61.8186 22.7126C59.5802 22.7126 57.3486 21.3958 57.3554 18.788C57.3623 16.1173 59.256 14.8 61.3363 14.4894C62.6684 14.2911 64.1699 14.4674 65.307 14.9192C65.3797 14.9484 65.5283 14.9062 65.5295 14.8031C65.5341 14.4628 65.5176 13.8142 65.4523 13.5068C65.2854 12.7236 64.632 12.0935 63.2595 11.9236C62.9768 11.8888 62.6922 11.8773 62.4073 11.9C61.3162 11.9857 60.0032 12.8365 59.4594 13.155C59.3314 13.2298 59.1311 13.1751 59.0663 13.0916C58.7489 12.6816 57.9513 11.4826 57.8885 11.291C57.8258 11.1 57.9147 10.9397 58.0263 10.8392ZM70.2122 15.8108C70.1908 12.0861 72.786 8.94385 77.0002 8.91623C79.6297 8.89908 81.54 10.0912 81.8769 10.6535C81.9453 10.7855 81.9102 10.8958 81.8628 11.0288C81.6402 11.4988 81.0779 12.4068 80.6772 12.9214C80.5066 13.1406 80.3213 12.9528 80.106 12.8096C79.5086 12.4116 78.3734 11.925 77.2562 11.925C75.2295 11.9254 73.7202 13.3151 73.737 15.8719C73.7528 18.3254 75.1984 19.6738 77.2633 19.7227C78.3427 19.7498 79.3885 19.1294 79.9511 18.6211C80.1278 18.4669 80.3107 18.5441 80.5126 18.7019C80.9088 19.1069 81.4771 19.7321 81.7922 20.1625C81.9985 20.4016 81.8441 20.6356 81.7699 20.7296C80.915 21.8114 79.2638 22.7219 77.0787 22.7342C72.5033 22.7663 70.2333 19.5488 70.2122 15.8108ZM92.0525 22.5663C92.2673 22.5502 94.5591 22.2339 95.2625 22.0728C95.4371 22.033 95.4992 21.8862 95.4016 21.7407C95.0088 21.1517 93.9761 19.479 92.8944 17.9815C91.8995 16.6047 90.851 15.3937 90.5119 14.9278C90.4292 14.8146 90.4336 14.7031 90.5237 14.6153C91.1688 13.984 93.8673 11.3382 94.8819 10.2456C95.2747 9.82053 95.0389 9.63768 94.7052 9.53836C94.0608 9.34625 93.0184 9.1068 92.4256 8.98176C92.1757 8.92892 91.8747 8.94745 91.6561 9.17215C90.6417 10.1181 87.5458 13.2254 86.6216 14.1542C86.4552 14.3218 86.3583 14.2846 86.3574 14.0451C86.3499 12.2543 86.3145 4.58737 86.2506 3.32629C86.2461 3.15956 86.0456 3.03298 85.9325 3.02697C85.3514 2.99661 83.8833 2.98786 83.3047 3.02183C83.1426 3.04018 82.9877 3.20536 82.9737 3.34499C82.8402 5.36147 83.0303 20.164 83.1095 22.2347C83.1152 22.3845 83.2267 22.5006 83.3689 22.509C83.9461 22.5425 85.3737 22.5402 86.0403 22.5277C86.3682 22.5277 86.4084 22.2972 86.4084 22.2972L86.4578 18.3251C86.4578 18.3251 86.4916 18.1484 86.5463 18.0901C86.7813 17.8371 87.4314 17.1403 87.7086 16.871C87.7751 16.8064 87.8801 16.811 87.948 16.9024C88.2774 17.3467 89.2165 18.791 90.087 20.0808C90.8868 21.2658 91.6335 22.3174 91.6856 22.3917C91.806 22.5632 91.9465 22.5696 92.0525 22.5663ZM53.0754 22.5526C53.277 22.5593 54.8062 22.5575 55.4837 22.5567C55.7118 22.5611 55.8304 22.3884 55.8379 22.2359C55.9818 19.3326 55.9202 5.50985 55.8293 3.32715C55.8218 3.13847 55.741 3.06762 55.6122 3.05047C55.0307 2.9726 53.3782 2.99078 52.8485 3.12937C52.7449 3.1563 52.6838 3.23504 52.6806 3.33624C52.5509 8.96237 52.6384 21.9334 52.6658 22.179C52.6931 22.425 52.8213 22.544 53.0754 22.5526Z" fill="#443642"/>
<path d="M12.1498 16.7797C11.2074 16.7869 10.4091 16.2253 10.1147 15.3488C10.1038 15.3157 10.0936 15.2823 10.0842 15.2488C9.76347 14.1263 10.3854 12.952 11.5002 12.576L29.3803 6.58568C29.5926 6.52426 29.8123 6.49218 30.0333 6.49031C31.0007 6.48277 31.821 7.0567 32.1225 7.95174L32.1493 8.03819C32.4838 9.20733 31.6527 10.2509 30.657 10.5854C30.6563 10.5859 30.4752 10.6471 12.876 16.656C12.6421 16.7357 12.3969 16.7775 12.1498 16.7797Z" fill="#70CADB"/>
<path d="M15.13 25.5735C14.1803 25.5803 13.3792 25.0267 13.0883 24.1627C13.0773 24.1298 13.067 24.0967 13.0574 24.0633C12.7322 22.9275 13.3535 21.7409 14.472 21.3643L32.3528 15.3192C32.5839 15.242 32.8225 15.2025 33.0625 15.2003C34.0148 15.1931 34.8515 15.7749 35.1467 16.6487L35.1742 16.7396C35.3469 17.3435 35.2448 18.0223 34.9014 18.558C34.6455 18.9563 33.8383 19.3069 33.8383 19.3069L15.8895 25.444C15.6447 25.5269 15.3884 25.5704 15.13 25.5735Z" fill="#E01765"/>
<path d="M30.0146 25.6121C29.5511 25.6165 29.0981 25.4742 28.7205 25.2054C28.3429 24.9366 28.0601 24.5552 27.9125 24.1158L21.9451 6.39004L21.9152 6.29055C21.5919 5.16018 22.2137 3.9811 23.3281 3.60545C23.5511 3.53049 23.7816 3.49138 24.0137 3.48932C24.3585 3.48675 24.6921 3.56445 25.0063 3.71969C25.2652 3.8477 25.4962 4.02562 25.686 4.24322C25.8758 4.46082 26.0208 4.7138 26.1125 4.98762L32.0795 22.7119L32.0968 22.7688C32.432 23.9424 31.8115 25.1222 30.6971 25.4978C30.477 25.5714 30.2467 25.6099 30.0146 25.6121Z" fill="#E8A723"/>
<path d="M21.1444 28.5977C20.6807 28.6021 20.2275 28.4596 19.8497 28.1906C19.4719 27.9216 19.189 27.5399 19.0415 27.1002L13.0756 9.37516C12.9831 9.10171 12.9455 8.81271 12.9649 8.5247C12.9843 8.2367 13.0603 7.95535 13.1886 7.69676C13.3169 7.43817 13.4949 7.20743 13.7125 7.01773C13.93 6.82803 14.1829 6.6831 14.4565 6.59125C14.677 6.51756 14.9076 6.47889 15.1401 6.47667C15.6036 6.4721 16.0567 6.6144 16.4344 6.88319C16.8121 7.15198 17.095 7.53345 17.2425 7.97292L23.2086 25.6986C23.3011 25.9722 23.3387 26.2614 23.3192 26.5495C23.2998 26.8376 23.2236 27.1191 23.0952 27.3778C22.9668 27.6364 22.7886 27.8672 22.5708 28.0569C22.353 28.2466 22.0999 28.3914 21.8261 28.4831C21.6061 28.5568 21.3765 28.5956 21.1444 28.5977Z" fill="#3EB890"/>
<path d="M27.0728 21.6193L31.2338 20.1966L29.8735 16.1572L25.7078 17.5649L27.0728 21.6193Z" fill="#CC2027"/>
<path d="M18.2162 24.6481L22.3768 23.2256L21.0063 19.1553L16.8416 20.5635L18.2162 24.6481Z" fill="#361238"/>
<path d="M24.1103 12.8212L28.2715 11.4005L26.9273 7.4082L22.7583 8.80495L24.1103 12.8212Z" fill="#65863A"/>
<path d="M15.2527 15.8449L19.414 14.4241L18.0533 10.3809L13.8843 11.7775L15.2527 15.8449Z" fill="#1A937D"/>
</svg>
